<svg width="24" height="23" viewBox="0 0 24 23" fill="none" xmlns="http://www.w3.org/2000/svg">
<path fill-rule="evenodd" clip-rule="evenodd" d="M12.6229 3.10926L17.5934 1.2453L21.9427 3.10926L23.1853 8.07982L19.4574 13.0504L14.4868 8.07982L13.2442 9.32246C12.5579 10.0088 11.4452 10.0088 10.7589 9.32246C10.0726 8.63617 10.0726 7.52348 10.7589 6.83718L13.2442 4.3519L12.6229 3.10926ZM17.6365 13.4584L14.6946 10.5166L13.8159 11.3953L16.7578 14.3371L17.6365 13.4584ZM10.3938 13.6717L13.9085 17.1864L13.0299 18.0651L9.51514 14.5504L10.3938 13.6717ZM16.3938 15.9437L12.8791 12.429L12.0004 13.3076L15.5152 16.8224L16.3938 15.9437Z" fill="#91BDFF"/>
<path fill-rule="evenodd" clip-rule="evenodd" d="M12 6.00255L10.2426 4.24519C8.46804 2.47059 5.59084 2.47059 3.81623 4.24519C2.04163 6.01979 2.04163 8.89699 3.81623 10.6716L12 18.8554L20.1838 10.6716C21.9584 8.89699 21.9584 6.01979 20.1838 4.24519C18.4092 2.47058 15.532 2.47059 13.7574 4.24519L12 6.00255ZM12 22.3701L2.05887 12.429C-0.686291 9.68379 -0.686291 5.23299 2.05887 2.48783C4.80404 -0.257338 9.25484 -0.257335 12 2.48783C11.9998 2.48801 12.0002 2.48765 12 2.48783C14.7452 -0.256801 19.1961 -0.257159 21.9411 2.48783C24.6863 5.23299 24.6863 9.68379 21.9411 12.429L12 22.3701Z" fill="#1F75F7"/>
</svg>
