<svg width="24" height="22" viewBox="0 0 24 22" fill="none" xmlns="http://www.w3.org/2000/svg">
<path d="M4.66667 -1.52588e-05H11.2667L9.26667 8.39998L12 21.6L9.53674e-07 8.39998L4.66667 -1.52588e-05Z" fill="#91BDFF"/>
<path fill-rule="evenodd" clip-rule="evenodd" d="M24 8.57339L12 21.6L0 8.57339L4.58359 -0.000106812L19.4164 -0.000105584L24 8.57339ZM19.7066 9.59999L12 17.9658L3.01893 8.21643L6.13497 2.38794L17.865 2.38794L20.4377 7.19999H7.2C6.53726 7.19999 6 7.73725 6 8.39999C6 9.06273 6.53726 9.59999 7.2 9.59999H19.7066Z" fill="#1F75F7"/>
<path fill-rule="evenodd" clip-rule="evenodd" d="M4.79971 10.8C5.46245 10.8 5.99971 10.2627 5.99971 9.59997V8.39997H7.19971C7.86245 8.39997 8.39971 7.86272 8.39971 7.19997C8.39971 6.53723 7.86245 5.99997 7.19971 5.99997H5.99971V4.79998C5.99971 4.13723 5.46245 3.59998 4.79971 3.59998C4.13696 3.59998 3.59971 4.13723 3.59971 4.79998V5.99997H2.39971C1.73697 5.99997 1.19971 6.53723 1.19971 7.19997C1.19971 7.86272 1.73697 8.39997 2.39971 8.39997H3.59971L3.59971 9.59997C3.59971 10.2627 4.13696 10.8 4.79971 10.8Z" fill="white"/>
<path fill-rule="evenodd" clip-rule="evenodd" d="M4.79971 10.8C5.46245 10.8 5.99971 10.2627 5.99971 9.59997V8.39997H7.19971C7.86245 8.39997 8.39971 7.86272 8.39971 7.19997C8.39971 6.53723 7.86245 5.99997 7.19971 5.99997H5.99971V4.79998C5.99971 4.13723 5.46245 3.59998 4.79971 3.59998C4.13696 3.59998 3.59971 4.13723 3.59971 4.79998V5.99997H2.39971C1.73697 5.99997 1.19971 6.53723 1.19971 7.19997C1.19971 7.86272 1.73697 8.39997 2.39971 8.39997H3.59971L3.59971 9.59997C3.59971 10.2627 4.13696 10.8 4.79971 10.8Z" fill="white"/>
</svg>
