<svg width="24" height="24" viewBox="0 0 24 24" fill="none" xmlns="http://www.w3.org/2000/svg">
<path fill-rule="evenodd" clip-rule="evenodd" d="M12.1351 9.21148V1.58997L16.6711 9.21148H12.1351ZM15.5371 11.6592L23.0546 9.21147L16.9939 15.7836L15.5371 11.6592ZM18.997 22.2596L14.8784 15.7443L11.0007 18.0039L18.997 22.2596ZM10.4463 15.2153L5.45694 21.1431L6.91837 12.4779L10.4463 15.2153ZM0.794922 9.21147L8.08383 10.7851L9.29989 7.76662L0.794922 9.21147Z" fill="#91BDFF"/>
<path fill-rule="evenodd" clip-rule="evenodd" d="M9.79227 1.60401C10.4872 -0.534666 13.5128 -0.534675 14.2077 1.60401L15.9703 7.02872H21.6742C23.9229 7.02872 24.8579 9.90629 23.0387 11.2281L18.4241 14.5807L20.1867 20.0054C20.8816 22.1441 18.4338 23.9226 16.6145 22.6008L12 19.2481L7.38547 22.6008C5.5662 23.9226 3.11838 22.1441 3.81328 20.0054L5.57588 14.5807L0.961343 11.2281C-0.857927 9.9063 0.0770513 7.02872 2.3258 7.02872H8.02967L9.79227 1.60401ZM13.7626 7.74606L12 2.32135L10.2374 7.74606C9.92663 8.7025 9.03534 9.35007 8.02967 9.35007L2.3258 9.35007L6.94033 12.7027C7.75393 13.2938 8.09437 14.3416 7.78361 15.2981L6.02101 20.7228L10.6355 17.3701C11.4491 16.779 12.5508 16.779 13.3645 17.3701L17.979 20.7228L16.2164 15.2981C15.9056 14.3416 16.2461 13.2938 17.0597 12.7027L21.6742 9.35007H15.9703C14.9647 9.35007 14.0734 8.7025 13.7626 7.74606Z" fill="#1F75F7"/>
<circle cx="12.0001" cy="12.4934" r="2.32135" fill="white"/>
</svg>
