<svg width="16" height="16" viewBox="0 0 16 16" fill="none" xmlns="http://www.w3.org/2000/svg">
<path fill-rule="evenodd" clip-rule="evenodd" d="M3.29289 7.12132C3.68342 6.7308 4.31658 6.7308 4.70711 7.12132L6.82772 9.24193L11.7782 4.29289C12.1687 3.90237 12.8019 3.90237 13.1924 4.29289C13.5829 4.68342 13.5829 5.31658 13.1924 5.70711L7.53553 11.364C7.14501 11.7545 6.51184 11.7545 6.12132 11.364L3.29289 8.53553C2.90237 8.14501 2.90237 7.51184 3.29289 7.12132Z" fill="white"/>
<mask id="mask0" mask-type="alpha" maskUnits="userSpaceOnUse" x="3" y="4" width="11" height="8">
<path fill-rule="evenodd" clip-rule="evenodd" d="M3.29289 7.12132C3.68342 6.7308 4.31658 6.7308 4.70711 7.12132L6.82772 9.24193L11.7782 4.29289C12.1687 3.90237 12.8019 3.90237 13.1924 4.29289C13.5829 4.68342 13.5829 5.31658 13.1924 5.70711L7.53553 11.364C7.14501 11.7545 6.51184 11.7545 6.12132 11.364L3.29289 8.53553C2.90237 8.14501 2.90237 7.51184 3.29289 7.12132Z" fill="white"/>
</mask>
<g mask="url(#mask0)">
<rect width="16" height="16" fill="white"/>
</g>
</svg>
