<?xml version="1.0" encoding="utf-8"?>
<!-- Generator: Adobe Illustrator 25.2.3, SVG Export Plug-In . SVG Version: 6.00 Build 0)  -->
<svg version="1.1" id="Layer_1" xmlns="http://www.w3.org/2000/svg" xmlns:xlink="http://www.w3.org/1999/xlink" x="0px" y="0px"
	 viewBox="0 0 200 200" style="enable-background:new 0 0 200 200;" xml:space="preserve">
<style type="text/css">
	

	
		.st0{fill-rule:evenodd;clip-rule:evenodd;fill:none;stroke:#9ee4ff;stroke-width:9.3158;stroke-linecap:round;stroke-miterlimit:10;}
		.st1{fill-rule:evenodd;clip-rule:evenodd;fill:none;stroke:#9ee4ff;stroke-width:7;stroke-linecap:round;stroke-miterlimit:10;}
	.path {
		stroke-dasharray: 108;
		stroke-dashoffset: 171;
		animation: dash 1s cubic-bezier(0.48, 0.04, 0.46, 0.97) infinite alternate ;
	}

	@keyframes dash {

		to {
			stroke-dasharray: 40;;
		}
	}
	
	
</style>
<path class="path st0" d="M67.4,68.6c0,0,42-16.6,58.8,10.7c15,24.4,4.1,52.5-9.6,66.5"/>
<path class="path st1" d="M74.4,151.4c0,0,25.5-8.5,32.6-26.5c6.3-16,8-39.2-19.3-42.5c-25.1-3.1-39.6,15.2-39.6,15.2"/>
<path class="path st1" d="M80,130.3c0,0-17.5,12.6-27.5,1.8c-11.8-12.8,20.4-40.7,33.4-29.3C98.3,113.8,80,130.3,80,130.3z"/>
<path class="path st0" d="M96.5,48.4c0,0,49.6-8.1,54.4,39.7"/>
</svg>
