<svg width="17" height="9" viewBox="0 0 17 9" fill="none" xmlns="http://www.w3.org/2000/svg">
<path fill-rule="evenodd" clip-rule="evenodd" d="M4.79329 6.28787L2.55141 4.04599L4.79329 1.80412C5.206 1.3914 5.206 0.722256 4.79329 0.309538C4.38057 -0.103179 3.71142 -0.103179 3.2987 0.309538L0.309538 3.2987C-0.103179 3.71142 -0.103179 4.38057 0.309538 4.79329L3.2987 7.78245C3.71142 8.19517 4.38057 8.19517 4.79329 7.78245C5.206 7.36973 5.206 6.70059 4.79329 6.28787ZM11.3095 1.80412L13.5514 4.046L11.3095 6.28787C10.8968 6.70059 10.8968 7.36973 11.3095 7.78245C11.7222 8.19517 12.3914 8.19517 12.8041 7.78245L15.7932 4.79329C16.206 4.38057 16.206 3.71142 15.7932 3.2987L12.8041 0.309538C12.3914 -0.103179 11.7222 -0.103179 11.3095 0.309538C10.8968 0.722256 10.8968 1.3914 11.3095 1.80412Z" fill="#FF5959"/>
</svg>
