<svg width="375" height="250" viewBox="0 0 375 250" fill="none" xmlns="http://www.w3.org/2000/svg">
<path d="M0 0H375V250H0V0Z" fill="#201785"/>
<mask id="mask0" mask-type="alpha" maskUnits="userSpaceOnUse" x="0" y="0" width="375" height="250">
<rect width="375" height="250" fill="#1E283D"/>
</mask>
<g mask="url(#mask0)">
<g opacity="0.8">
<g style="mix-blend-mode:multiply" opacity="0.8" filter="url(#filter0_f)">
<path d="M182.903 84.1664C247.793 67.4069 392.482 35.0369 401.728 123.424C410.975 211.812 298.795 337.537 233.905 354.297C169.014 371.056 121.762 316.617 112.515 228.229C103.269 139.842 118.012 100.926 182.903 84.1664Z" fill="url(#paint0_linear)" fill-opacity="0.4"/>
</g>
</g>
<g opacity="0.8">
<g style="mix-blend-mode:multiply" opacity="0.8" filter="url(#filter1_f)">
<path d="M223.827 67.2201C257.35 50.4606 332.097 18.0906 336.874 106.478C341.651 194.865 283.698 320.591 250.175 337.351C216.652 354.11 192.242 299.67 187.465 211.283C182.688 122.895 190.304 83.9795 223.827 67.2201Z" fill="url(#paint1_linear)" fill-opacity="0.4"/>
</g>
</g>
<g opacity="0.8">
<g style="mix-blend-mode:multiply" opacity="0.8" filter="url(#filter2_f)">
<path d="M234.905 181.135C268.428 164.375 343.175 132.005 347.952 220.393C352.728 308.78 294.776 434.506 261.253 451.265C227.73 468.025 203.319 413.585 198.542 325.197C193.765 236.81 201.382 197.894 234.905 181.135Z" fill="url(#paint2_linear)" fill-opacity="0.4"/>
</g>
</g>
<g opacity="0.8">
<g style="mix-blend-mode:multiply" opacity="0.8" filter="url(#filter3_f)">
<path d="M208.585 8.09131C260.309 -8.8523 375.639 -41.578 383.01 47.7807C390.38 137.139 300.962 264.247 249.238 281.19C197.514 298.134 159.85 243.096 152.479 153.737C145.109 64.3785 156.861 25.0349 208.585 8.09131Z" fill="url(#paint3_linear)" fill-opacity="0.4"/>
</g>
</g>
<g opacity="0.8">
<g style="mix-blend-mode:multiply" opacity="0.8" filter="url(#filter4_f)">
<path d="M241.205 -9.04107C267.926 -25.9847 327.507 -58.7104 331.315 30.6483C335.122 120.007 288.928 247.114 262.207 264.058C235.486 281.002 216.029 225.964 212.221 136.605C208.413 47.2461 214.484 7.90254 241.205 -9.04107Z" fill="url(#paint4_linear)" fill-opacity="0.4"/>
</g>
</g>
<g opacity="0.8">
<g style="mix-blend-mode:multiply" opacity="0.8" filter="url(#filter5_f)">
<path d="M250.035 106.125C276.756 89.1816 336.336 56.4558 340.144 145.815C343.952 235.173 297.758 362.281 271.037 379.224C244.316 396.168 224.858 341.13 221.051 251.771C217.243 162.412 223.314 123.069 250.035 106.125Z" fill="url(#paint5_linear)" fill-opacity="0.4"/>
</g>
</g>
<g opacity="0.8">
<g style="mix-blend-mode:multiply" opacity="0.8" filter="url(#filter6_f)">
<path d="M169.585 25.0913C221.309 8.1477 336.639 -24.578 344.01 64.7807C351.38 154.139 261.962 281.247 210.238 298.19C158.514 315.134 120.85 260.096 113.479 170.737C106.109 81.3785 117.861 42.0349 169.585 25.0913Z" fill="url(#paint6_linear)" fill-opacity="0.4"/>
</g>
</g>
<g opacity="0.8">
<g style="mix-blend-mode:multiply" opacity="0.8" filter="url(#filter7_f)">
<path d="M202.205 7.95893C228.926 -8.98468 288.507 -41.7104 292.315 47.6483C296.122 137.007 249.928 264.114 223.207 281.058C196.486 298.002 177.029 242.964 173.221 153.605C169.413 64.2461 175.484 24.9025 202.205 7.95893Z" fill="url(#paint7_linear)" fill-opacity="0.4"/>
</g>
</g>
<g opacity="0.8">
<g style="mix-blend-mode:multiply" opacity="0.8" filter="url(#filter8_f)">
<path d="M211.035 123.125C237.756 106.182 297.336 73.4558 301.144 162.815C304.952 252.173 258.758 379.281 232.037 396.224C205.316 413.168 185.858 358.13 182.051 268.771C178.243 179.412 184.314 140.069 211.035 123.125Z" fill="url(#paint8_linear)" fill-opacity="0.4"/>
</g>
</g>
</g>
<mask id="mask1" mask-type="alpha" maskUnits="userSpaceOnUse" x="0" y="0" width="375" height="250">
<rect width="375" height="250" fill="#1E283D"/>
</mask>
<g mask="url(#mask1)">
<mask id="mask2" mask-type="alpha" maskUnits="userSpaceOnUse" x="-511" y="0" width="1006" height="251">
<rect x="-511" width="1005.03" height="250.559" fill="#1E283D"/>
</mask>
<g mask="url(#mask2)">
<g style="mix-blend-mode:multiply" opacity="0.8" filter="url(#filter9_f)">
<path d="M288.185 130.047C315.33 120.628 375.856 102.436 379.724 152.111C383.592 201.785 336.665 272.445 309.52 281.864C282.375 291.283 262.608 260.687 258.74 211.012C254.872 161.338 261.04 139.466 288.185 130.047Z" fill="url(#paint9_linear)" fill-opacity="0.4"/>
</g>
<g opacity="0.8">
<g style="mix-blend-mode:multiply" opacity="0.8" filter="url(#filter10_f)">
<path d="M-133.439 17.2207C5.18511 -7.62849 314.28 -55.6234 334.033 75.4284C353.787 206.48 114.14 392.894 -24.4844 417.743C-163.109 442.592 -264.052 361.874 -283.805 230.822C-303.559 99.7705 -272.063 42.0699 -133.439 17.2207Z" fill="url(#paint10_linear)" fill-opacity="0.4"/>
</g>
</g>
<g opacity="0.8">
<g style="mix-blend-mode:multiply" opacity="0.8" filter="url(#filter11_f)">
<path d="M-46.0128 -7.90526C25.6013 -32.7544 185.282 -80.7494 195.486 50.3024C205.691 181.354 81.888 367.768 10.2739 392.617C-61.3403 417.466 -113.488 336.748 -123.693 205.696C-133.898 74.6445 -117.627 16.9439 -46.0128 -7.90526Z" fill="url(#paint11_linear)" fill-opacity="0.4"/>
</g>
</g>
<g opacity="0.8">
<g style="mix-blend-mode:multiply" opacity="0.8" filter="url(#filter12_f)">
<path d="M-22.3492 160.995C49.2649 136.146 208.945 88.1512 219.15 219.203C229.355 350.255 105.552 536.668 33.9374 561.517C-37.6767 586.367 -89.8245 505.649 -100.029 374.597C-110.234 243.545 -93.9633 185.845 -22.3492 160.995Z" fill="url(#paint12_linear)" fill-opacity="0.4"/>
</g>
</g>
<g opacity="0.8">
<g style="mix-blend-mode:multiply" opacity="0.8" filter="url(#filter13_f)">
<path d="M48.0248 -61.6462C186.649 -86.4954 495.744 -134.49 515.497 -3.43851C535.251 127.613 295.604 314.027 156.979 338.876C18.3553 363.725 -82.5878 283.007 -102.341 151.955C-122.095 20.9036 -90.5993 -36.797 48.0248 -61.6462Z" fill="url(#paint13_linear)" fill-opacity="0.4"/>
</g>
</g>
<g opacity="0.8">
<g style="mix-blend-mode:multiply" opacity="0.8" filter="url(#filter14_f)">
<path d="M135.449 -86.772C207.063 -111.621 366.743 -159.616 376.948 -28.5643C387.153 102.488 263.349 288.901 191.735 313.75C120.121 338.599 67.9733 257.882 57.7684 126.83C47.5636 -4.22217 63.8345 -61.9228 135.449 -86.772Z" fill="url(#paint14_linear)" fill-opacity="0.4"/>
</g>
</g>
<g opacity="0.8">
<g style="mix-blend-mode:multiply" opacity="0.8" filter="url(#filter15_f)">
<path d="M159.116 82.1284C230.73 57.2792 390.41 9.28427 400.615 140.336C410.82 271.388 287.016 457.801 215.402 482.65C143.788 507.5 91.6403 426.782 81.4354 295.73C71.2305 164.678 87.5015 106.978 159.116 82.1284Z" fill="url(#paint15_linear)" fill-opacity="0.4"/>
</g>
</g>
<mask id="mask3" mask-type="alpha" maskUnits="userSpaceOnUse" x="-511" y="0" width="1006" height="302">
<rect x="-511" width="1005.03" height="301.509" fill="#1E283D"/>
</mask>
<g mask="url(#mask3)">
<g opacity="0.8">
<g style="mix-blend-mode:multiply" opacity="0.8" filter="url(#filter16_f)">
<path d="M136.434 187.931C201.499 166.668 346.575 125.598 355.847 237.74C365.119 349.881 252.638 509.395 187.573 530.659C122.508 551.922 75.1297 482.852 65.8581 370.711C56.5865 258.569 71.3694 209.195 136.434 187.931Z" fill="url(#paint16_linear)" fill-opacity="0.4"/>
</g>
</g>
<g opacity="0.8">
<g style="mix-blend-mode:multiply" opacity="0.8" filter="url(#filter17_f)">
<path d="M189.801 222.311C225.101 208.109 303.811 180.678 308.841 255.579C313.871 330.479 252.846 437.021 217.546 451.224C182.246 465.426 156.541 419.293 151.511 344.392C146.481 269.491 154.501 236.513 189.801 222.311Z" fill="url(#paint17_linear)" fill-opacity="0.4"/>
</g>
</g>
<g opacity="0.8">
<g style="mix-blend-mode:multiply" opacity="0.8" filter="url(#filter18_f)">
<path d="M222.756 227.279C256.369 206.015 331.317 164.946 336.106 277.087C340.896 389.229 282.788 548.743 249.175 570.006C215.562 591.27 191.086 522.2 186.296 410.058C181.507 297.917 189.144 248.542 222.756 227.279Z" fill="url(#paint18_linear)" fill-opacity="0.4"/>
</g>
</g>
<g opacity="0.8">
<g style="mix-blend-mode:multiply" opacity="0.8" filter="url(#filter19_f)">
<path d="M230.981 182.427C254.296 172.685 306.284 153.868 309.606 205.248C312.929 256.627 272.622 329.71 249.306 339.452C225.991 349.194 209.013 317.549 205.691 266.17C202.368 214.791 207.665 192.169 230.981 182.427Z" fill="url(#paint19_linear)" fill-opacity="0.4"/>
</g>
</g>
<g opacity="0.2" filter="url(#filter20_f)">
<path d="M78.0876 248.715C47.0636 271.219 33.9057 286.616 12.0059 313.373H566.168L453.701 183.13L422.941 214.519L411.312 203.617C407.55 200.091 401.724 200.002 397.857 203.413L392.662 207.996C373.3 183.513 334.205 138.085 321.011 138.9C307.817 139.715 277.834 184.059 251.358 207.589C251.358 207.589 248.478 202.085 244.148 201.882C239.819 201.678 221.956 221.96 204.256 238.978C198.525 232.602 194.812 228.612 192.162 226.039C189.253 223.215 184.867 223.488 181.861 226.207C176.294 231.241 171.064 236.985 162.442 247.131C162.442 247.131 152.684 230.621 146.341 230.009C139.998 229.398 117.856 251.447 104.61 269.035C97.5452 257.998 93.021 251.933 87.5938 248.153C84.7249 246.155 80.9177 246.662 78.0876 248.715Z" fill="#201785"/>
</g>
</g>
</g>
<path d="M283.373 215.706H284.25V205.025H283.373V215.706Z" fill="#00D894"/>
<path d="M283.373 227.179H284.25V216.498H283.373V227.179Z" fill="#00D894"/>
<path d="M283.373 238.651H284.25V227.97H283.373V238.651Z" fill="#00D894"/>
<path d="M283.373 250.123H284.25V239.443H283.373V250.123Z" fill="#00D894"/>
<path d="M287.514 171.932V170.726H280.092V171.932H287.514Z" fill="#00D894"/>
<path d="M269.526 179.071C269.526 182.049 271.232 184.248 273.352 184.248V182.951C272.298 182.951 271.015 180.932 271.015 179.071C271.015 177.199 272.298 175.068 273.352 175.068V173.759C271.232 173.759 269.526 176.094 269.526 179.071Z" fill="#00D894"/>
<path d="M275.361 173.85H274.032L277.778 181.62H279.107L275.361 173.85Z" fill="#00D894"/>
<path d="M287.514 183.21V182.004H280.092V183.21H287.514Z" fill="#00D894"/>
<path d="M288.496 181.62H289.825L293.57 173.85H292.242L288.496 181.62Z" fill="#00D894"/>
<path d="M298.072 179.071C298.072 176.094 296.365 173.759 294.246 173.759V175.068C295.3 175.068 296.583 177.199 296.583 179.071C296.583 180.932 295.3 182.951 294.246 182.951V184.248C296.365 184.248 298.072 182.049 298.072 179.071Z" fill="#00D894"/>
<path d="M265.309 190.349C265.309 193.327 267.015 195.526 269.134 195.526V194.229C268.081 194.229 266.798 192.21 266.798 190.349C266.798 188.477 268.081 186.346 269.134 186.346V185.037C267.015 185.037 265.309 187.372 265.309 190.349Z" fill="#00D894"/>
<path d="M274.214 190.925V189.402H270.147V190.925H274.214Z" fill="#00D894"/>
<path d="M275.264 190.349C275.264 193.327 276.971 195.526 279.09 195.526V194.229C278.036 194.229 276.753 192.21 276.753 190.349C276.753 188.477 278.036 186.346 279.09 186.346V185.037C276.971 185.037 275.264 187.372 275.264 190.349Z" fill="#00D894"/>
<path d="M287.514 194.488V193.282H280.092V194.488H287.514Z" fill="#00D894"/>
<path d="M292.333 190.349C292.333 187.372 290.627 185.037 288.508 185.037V186.346C289.561 186.346 290.844 188.477 290.844 190.349C290.844 192.21 289.561 194.229 288.508 194.229V195.526C290.627 195.526 292.333 193.327 292.333 190.349Z" fill="#00D894"/>
<path d="M297.459 190.925V189.402H293.392V190.925H297.459Z" fill="#00D894"/>
<path d="M302.289 190.349C302.289 187.372 300.582 185.037 298.463 185.037V186.346C299.517 186.346 300.8 188.477 300.8 190.349C300.8 192.21 299.517 194.229 298.463 194.229V195.526C300.582 195.526 302.289 193.327 302.289 190.349Z" fill="#00D894"/>
<path d="M269.526 201.627C269.526 204.605 271.232 206.804 273.352 206.804V205.507C272.298 205.507 271.015 203.488 271.015 201.627C271.015 199.755 272.298 197.624 273.352 197.624V196.315C271.232 196.315 269.526 198.65 269.526 201.627Z" fill="#00D894"/>
<path d="M274.032 204.176H275.361L279.107 196.406H277.778L274.032 204.176Z" fill="#00D894"/>
<path d="M287.514 205.766V204.56H280.092V205.766H287.514Z" fill="#00D894"/>
<path d="M289.825 196.406H288.496L292.242 204.176H293.57L289.825 196.406Z" fill="#00D894"/>
<path d="M298.072 201.627C298.072 198.65 296.365 196.315 294.246 196.315V197.624C295.3 197.624 296.583 199.755 296.583 201.627C296.583 203.488 295.3 205.507 294.246 205.507V206.804C296.365 206.804 298.072 204.605 298.072 201.627Z" fill="#00D894"/>
<path d="M273.426 221.081C273.426 224.027 275.033 226.204 277.027 226.204V224.92C276.035 224.92 274.828 222.922 274.828 221.081C274.828 219.228 276.035 217.118 277.027 217.118V215.823C275.033 215.823 273.426 218.134 273.426 221.081Z" fill="#00D894"/>
<path d="M278.919 215.913H277.668L281.195 223.603H282.445L278.919 215.913Z" fill="#00D894"/>
<path d="M276.771 227.074H275.52L279.046 234.765H280.297L276.771 227.074Z" fill="#00D894"/>
<path d="M327.544 205.637H328.446V195.078H327.544V205.637Z" fill="#00D894"/>
<path d="M327.544 216.977H328.446V206.419H327.544V216.977Z" fill="#00D894"/>
<path d="M327.544 228.318H328.446V217.76H327.544V228.318Z" fill="#00D894"/>
<path d="M327.544 239.659H328.446V229.101H327.544V239.659Z" fill="#00D894"/>
<path d="M327.544 251H328.446V240.442H327.544V251Z" fill="#00D894"/>
<path d="M332.071 160.237V159H324.83V160.237H332.071Z" fill="#00D894"/>
<path d="M314.522 167.554C314.522 170.606 316.187 172.86 318.254 172.86V171.531C317.226 171.531 315.974 169.462 315.974 167.554C315.974 165.635 317.226 163.451 318.254 163.451V162.11C316.187 162.11 314.522 164.503 314.522 167.554Z" fill="#00D894"/>
<path d="M320.215 162.202H318.918L322.573 170.167H323.869L320.215 162.202Z" fill="#00D894"/>
<path d="M332.071 171.797V170.56H324.83V171.797H332.071Z" fill="#00D894"/>
<path d="M333.029 170.167H334.325L337.98 162.202H336.683L333.029 170.167Z" fill="#00D894"/>
<path d="M342.371 167.554C342.371 164.503 340.706 162.11 338.639 162.11V163.451C339.667 163.451 340.919 165.635 340.919 167.554C340.919 169.462 339.667 171.531 338.639 171.531V172.86C340.706 172.86 342.371 170.606 342.371 167.554Z" fill="#00D894"/>
<path d="M310.407 179.114C310.407 182.166 312.072 184.42 314.14 184.42V183.091C313.112 183.091 311.86 181.022 311.86 179.114C311.86 177.195 313.112 175.011 314.14 175.011V173.67C312.072 173.67 310.407 176.063 310.407 179.114Z" fill="#00D894"/>
<path d="M319.095 179.704V178.143H315.128V179.704H319.095Z" fill="#00D894"/>
<path d="M320.12 179.114C320.12 182.166 321.785 184.42 323.853 184.42V183.091C322.824 183.091 321.573 181.022 321.573 179.114C321.573 177.195 322.824 175.011 323.853 175.011V173.67C321.785 173.67 320.12 176.063 320.12 179.114Z" fill="#00D894"/>
<path d="M332.071 183.357V182.12H324.83V183.357H332.071Z" fill="#00D894"/>
<path d="M336.773 179.114C336.773 176.063 335.108 173.67 333.04 173.67V175.011C334.068 175.011 335.32 177.195 335.32 179.114C335.32 181.022 334.068 183.091 333.04 183.091V184.42C335.108 184.42 336.773 182.166 336.773 179.114Z" fill="#00D894"/>
<path d="M341.773 179.704V178.143H337.806V179.704H341.773Z" fill="#00D894"/>
<path d="M346.486 179.114C346.486 176.063 344.821 173.67 342.753 173.67V175.011C343.781 175.011 345.033 177.195 345.033 179.114C345.033 181.022 343.781 183.091 342.753 183.091V184.42C344.821 184.42 346.486 182.166 346.486 179.114Z" fill="#00D894"/>
<path d="M314.522 190.674C314.522 193.726 316.187 195.98 318.254 195.98V194.651C317.226 194.651 315.974 192.582 315.974 190.674C315.974 188.755 317.226 186.571 318.254 186.571V185.23C316.187 185.23 314.522 187.623 314.522 190.674Z" fill="#00D894"/>
<path d="M318.918 193.287H320.215L323.869 185.322H322.573L318.918 193.287Z" fill="#00D894"/>
<path d="M332.071 194.917V193.68H324.83V194.917H332.071Z" fill="#00D894"/>
<path d="M334.325 185.322H333.029L336.683 193.287H337.98L334.325 185.322Z" fill="#00D894"/>
<path d="M342.371 190.674C342.371 187.623 340.706 185.23 338.639 185.23V186.571C339.667 186.571 340.919 188.755 340.919 190.674C340.919 192.582 339.667 194.651 338.639 194.651V195.98C340.706 195.98 342.371 193.726 342.371 190.674Z" fill="#00D894"/>
<path d="M317.623 236.414C317.623 239.361 319.23 241.537 321.225 241.537V240.254C320.233 240.254 319.025 238.256 319.025 236.414C319.025 234.561 320.233 232.452 321.225 232.452V231.157C319.23 231.157 317.623 233.467 317.623 236.414Z" fill="#00D894"/>
<path d="M323.116 231.246H321.866L325.392 238.937H326.643L323.116 231.246Z" fill="#00D894"/>
<path d="M320.968 242.408H319.717L323.244 250.098H324.494L320.968 242.408Z" fill="#00D894"/>
<path d="M328.447 222.701H329.698L333.226 215.011H331.975L328.447 222.701Z" fill="#00D894"/>
<path d="M337.466 220.179C337.466 217.232 335.859 214.922 333.863 214.922V216.216C334.855 216.216 336.064 218.326 336.064 220.179C336.064 222.02 334.855 224.018 333.863 224.018V225.302C335.859 225.302 337.466 223.125 337.466 220.179Z" fill="#00D894"/>
<path d="M330.596 233.863H331.848L335.376 226.172H334.124L330.596 233.863Z" fill="#00D894"/>
</g>
<defs>
<filter id="filter0_f" x="-89.9951" y="-135.678" width="692.261" height="692.997" filterUnits="userSpaceOnUse" color-interpolation-filters="sRGB">
<feFlood flood-opacity="0" result="BackgroundImageFix"/>
<feBlend mode="normal" in="SourceGraphic" in2="BackgroundImageFix" result="shape"/>
<feGaussianBlur stdDeviation="100" result="effect1_foregroundBlur"/>
</filter>
<filter id="filter1_f" x="-13.8325" y="-152.624" width="550.984" height="692.997" filterUnits="userSpaceOnUse" color-interpolation-filters="sRGB">
<feFlood flood-opacity="0" result="BackgroundImageFix"/>
<feBlend mode="normal" in="SourceGraphic" in2="BackgroundImageFix" result="shape"/>
<feGaussianBlur stdDeviation="100" result="effect1_foregroundBlur"/>
</filter>
<filter id="filter2_f" x="-2.75488" y="-38.7095" width="550.984" height="692.997" filterUnits="userSpaceOnUse" color-interpolation-filters="sRGB">
<feFlood flood-opacity="0" result="BackgroundImageFix"/>
<feBlend mode="normal" in="SourceGraphic" in2="BackgroundImageFix" result="shape"/>
<feGaussianBlur stdDeviation="100" result="effect1_foregroundBlur"/>
</filter>
<filter id="filter3_f" x="-49.5215" y="-211.971" width="632.96" height="696.217" filterUnits="userSpaceOnUse" color-interpolation-filters="sRGB">
<feFlood flood-opacity="0" result="BackgroundImageFix"/>
<feBlend mode="normal" in="SourceGraphic" in2="BackgroundImageFix" result="shape"/>
<feGaussianBlur stdDeviation="100" result="effect1_foregroundBlur"/>
</filter>
<filter id="filter4_f" x="11.1875" y="-229.103" width="520.349" height="696.217" filterUnits="userSpaceOnUse" color-interpolation-filters="sRGB">
<feFlood flood-opacity="0" result="BackgroundImageFix"/>
<feBlend mode="normal" in="SourceGraphic" in2="BackgroundImageFix" result="shape"/>
<feGaussianBlur stdDeviation="100" result="effect1_foregroundBlur"/>
</filter>
<filter id="filter5_f" x="20.0171" y="-113.937" width="520.349" height="696.217" filterUnits="userSpaceOnUse" color-interpolation-filters="sRGB">
<feFlood flood-opacity="0" result="BackgroundImageFix"/>
<feBlend mode="normal" in="SourceGraphic" in2="BackgroundImageFix" result="shape"/>
<feGaussianBlur stdDeviation="100" result="effect1_foregroundBlur"/>
</filter>
<filter id="filter6_f" x="-88.5215" y="-194.971" width="632.96" height="696.217" filterUnits="userSpaceOnUse" color-interpolation-filters="sRGB">
<feFlood flood-opacity="0" result="BackgroundImageFix"/>
<feBlend mode="normal" in="SourceGraphic" in2="BackgroundImageFix" result="shape"/>
<feGaussianBlur stdDeviation="100" result="effect1_foregroundBlur"/>
</filter>
<filter id="filter7_f" x="-27.8125" y="-212.103" width="520.349" height="696.217" filterUnits="userSpaceOnUse" color-interpolation-filters="sRGB">
<feFlood flood-opacity="0" result="BackgroundImageFix"/>
<feBlend mode="normal" in="SourceGraphic" in2="BackgroundImageFix" result="shape"/>
<feGaussianBlur stdDeviation="100" result="effect1_foregroundBlur"/>
</filter>
<filter id="filter8_f" x="-18.9829" y="-96.937" width="520.349" height="696.217" filterUnits="userSpaceOnUse" color-interpolation-filters="sRGB">
<feFlood flood-opacity="0" result="BackgroundImageFix"/>
<feBlend mode="normal" in="SourceGraphic" in2="BackgroundImageFix" result="shape"/>
<feGaussianBlur stdDeviation="100" result="effect1_foregroundBlur"/>
</filter>
<filter id="filter9_f" x="57.6899" y="-81.1052" width="522.259" height="564.668" filterUnits="userSpaceOnUse" color-interpolation-filters="sRGB">
<feFlood flood-opacity="0" result="BackgroundImageFix"/>
<feBlend mode="normal" in="SourceGraphic" in2="BackgroundImageFix" result="shape"/>
<feGaussianBlur stdDeviation="100" result="effect1_foregroundBlur"/>
</filter>
<filter id="filter10_f" x="-489.168" y="-212.202" width="1024.35" height="834.426" filterUnits="userSpaceOnUse" color-interpolation-filters="sRGB">
<feFlood flood-opacity="0" result="BackgroundImageFix"/>
<feBlend mode="normal" in="SourceGraphic" in2="BackgroundImageFix" result="shape"/>
<feGaussianBlur stdDeviation="100" result="effect1_foregroundBlur"/>
</filter>
<filter id="filter11_f" x="-326.463" y="-237.328" width="722.543" height="834.426" filterUnits="userSpaceOnUse" color-interpolation-filters="sRGB">
<feFlood flood-opacity="0" result="BackgroundImageFix"/>
<feBlend mode="normal" in="SourceGraphic" in2="BackgroundImageFix" result="shape"/>
<feGaussianBlur stdDeviation="100" result="effect1_foregroundBlur"/>
</filter>
<filter id="filter12_f" x="-302.8" y="-68.4272" width="722.543" height="834.426" filterUnits="userSpaceOnUse" color-interpolation-filters="sRGB">
<feFlood flood-opacity="0" result="BackgroundImageFix"/>
<feBlend mode="normal" in="SourceGraphic" in2="BackgroundImageFix" result="shape"/>
<feGaussianBlur stdDeviation="100" result="effect1_foregroundBlur"/>
</filter>
<filter id="filter13_f" x="-307.704" y="-291.069" width="1024.35" height="834.426" filterUnits="userSpaceOnUse" color-interpolation-filters="sRGB">
<feFlood flood-opacity="0" result="BackgroundImageFix"/>
<feBlend mode="normal" in="SourceGraphic" in2="BackgroundImageFix" result="shape"/>
<feGaussianBlur stdDeviation="100" result="effect1_foregroundBlur"/>
</filter>
<filter id="filter14_f" x="-145.002" y="-316.195" width="722.543" height="834.426" filterUnits="userSpaceOnUse" color-interpolation-filters="sRGB">
<feFlood flood-opacity="0" result="BackgroundImageFix"/>
<feBlend mode="normal" in="SourceGraphic" in2="BackgroundImageFix" result="shape"/>
<feGaussianBlur stdDeviation="100" result="effect1_foregroundBlur"/>
</filter>
<filter id="filter15_f" x="-121.335" y="-147.294" width="722.543" height="834.426" filterUnits="userSpaceOnUse" color-interpolation-filters="sRGB">
<feFlood flood-opacity="0" result="BackgroundImageFix"/>
<feBlend mode="normal" in="SourceGraphic" in2="BackgroundImageFix" result="shape"/>
<feGaussianBlur stdDeviation="100" result="effect1_foregroundBlur"/>
</filter>
<filter id="filter16_f" x="-136.659" y="-37.2458" width="693.045" height="771.739" filterUnits="userSpaceOnUse" color-interpolation-filters="sRGB">
<feFlood flood-opacity="0" result="BackgroundImageFix"/>
<feBlend mode="normal" in="SourceGraphic" in2="BackgroundImageFix" result="shape"/>
<feGaussianBlur stdDeviation="100" result="effect1_foregroundBlur"/>
</filter>
<filter id="filter17_f" x="-49.855" y="5.49463" width="558.988" height="648.29" filterUnits="userSpaceOnUse" color-interpolation-filters="sRGB">
<feFlood flood-opacity="0" result="BackgroundImageFix"/>
<feBlend mode="normal" in="SourceGraphic" in2="BackgroundImageFix" result="shape"/>
<feGaussianBlur stdDeviation="100" result="effect1_foregroundBlur"/>
</filter>
<filter id="filter18_f" x="-15.0039" y="2.10181" width="551.389" height="771.739" filterUnits="userSpaceOnUse" color-interpolation-filters="sRGB">
<feFlood flood-opacity="0" result="BackgroundImageFix"/>
<feBlend mode="normal" in="SourceGraphic" in2="BackgroundImageFix" result="shape"/>
<feGaussianBlur stdDeviation="100" result="effect1_foregroundBlur"/>
</filter>
<filter id="filter19_f" x="4.78857" y="-29.1082" width="505.011" height="570.317" filterUnits="userSpaceOnUse" color-interpolation-filters="sRGB">
<feFlood flood-opacity="0" result="BackgroundImageFix"/>
<feBlend mode="normal" in="SourceGraphic" in2="BackgroundImageFix" result="shape"/>
<feGaussianBlur stdDeviation="100" result="effect1_foregroundBlur"/>
</filter>
<filter id="filter20_f" x="-0.994141" y="125.889" width="580.162" height="200.484" filterUnits="userSpaceOnUse" color-interpolation-filters="sRGB">
<feFlood flood-opacity="0" result="BackgroundImageFix"/>
<feBlend mode="normal" in="SourceGraphic" in2="BackgroundImageFix" result="shape"/>
<feGaussianBlur stdDeviation="6.5" result="effect1_foregroundBlur"/>
</filter>
<linearGradient id="paint0_linear" x1="188.068" y1="530.961" x2="498.962" y2="527.379" gradientUnits="userSpaceOnUse">
<stop stop-color="#1477F8"/>
<stop offset="0.848958" stop-color="#FF6161"/>
</linearGradient>
<linearGradient id="paint1_linear" x1="226.495" y1="514.015" x2="387.121" y2="513.059" gradientUnits="userSpaceOnUse">
<stop stop-color="#1477F8"/>
<stop offset="0.848958" stop-color="#FF6161"/>
</linearGradient>
<linearGradient id="paint2_linear" x1="237.573" y1="627.929" x2="398.199" y2="626.973" gradientUnits="userSpaceOnUse">
<stop stop-color="#1477F8"/>
<stop offset="0.848958" stop-color="#FF6161"/>
</linearGradient>
<linearGradient id="paint3_linear" x1="212.702" y1="459.796" x2="460.527" y2="457.545" gradientUnits="userSpaceOnUse">
<stop stop-color="#1477F8"/>
<stop offset="0.848958" stop-color="#FF6161"/>
</linearGradient>
<linearGradient id="paint4_linear" x1="243.332" y1="442.664" x2="371.368" y2="442.063" gradientUnits="userSpaceOnUse">
<stop stop-color="#1477F8"/>
<stop offset="0.848958" stop-color="#FF6161"/>
</linearGradient>
<linearGradient id="paint5_linear" x1="252.162" y1="557.83" x2="380.198" y2="557.229" gradientUnits="userSpaceOnUse">
<stop stop-color="#1477F8"/>
<stop offset="0.848958" stop-color="#FF6161"/>
</linearGradient>
<linearGradient id="paint6_linear" x1="173.702" y1="476.796" x2="421.527" y2="474.545" gradientUnits="userSpaceOnUse">
<stop stop-color="#1477F8"/>
<stop offset="0.848958" stop-color="#FF6161"/>
</linearGradient>
<linearGradient id="paint7_linear" x1="204.332" y1="459.664" x2="332.368" y2="459.063" gradientUnits="userSpaceOnUse">
<stop stop-color="#1477F8"/>
<stop offset="0.848958" stop-color="#FF6161"/>
</linearGradient>
<linearGradient id="paint8_linear" x1="213.162" y1="574.83" x2="341.198" y2="574.229" gradientUnits="userSpaceOnUse">
<stop stop-color="#1477F8"/>
<stop offset="0.848958" stop-color="#FF6161"/>
</linearGradient>
<linearGradient id="paint9_linear" x1="290.345" y1="381.151" x2="420.407" y2="380.036" gradientUnits="userSpaceOnUse">
<stop offset="0.333333" stop-color="#1477F8"/>
<stop offset="0.640625" stop-color="#FAD988"/>
</linearGradient>
<linearGradient id="paint10_linear" x1="-122.404" y1="679.682" x2="541.656" y2="668.659" gradientUnits="userSpaceOnUse">
<stop stop-color="#1477F8"/>
<stop offset="0.848958" stop-color="#FF6161"/>
</linearGradient>
<linearGradient id="paint11_linear" x1="-40.3122" y1="654.556" x2="302.815" y2="651.614" gradientUnits="userSpaceOnUse">
<stop stop-color="#1477F8"/>
<stop offset="0.848958" stop-color="#FF6161"/>
</linearGradient>
<linearGradient id="paint12_linear" x1="-16.6486" y1="823.457" x2="326.479" y2="820.515" gradientUnits="userSpaceOnUse">
<stop stop-color="#1477F8"/>
<stop offset="0.848958" stop-color="#FF6161"/>
</linearGradient>
<linearGradient id="paint13_linear" x1="59.0595" y1="600.816" x2="723.12" y2="589.792" gradientUnits="userSpaceOnUse">
<stop stop-color="#1477F8"/>
<stop offset="0.848958" stop-color="#FF6161"/>
</linearGradient>
<linearGradient id="paint14_linear" x1="141.149" y1="575.69" x2="484.277" y2="572.747" gradientUnits="userSpaceOnUse">
<stop stop-color="#1477F8"/>
<stop offset="0.848958" stop-color="#FF6161"/>
</linearGradient>
<linearGradient id="paint15_linear" x1="164.816" y1="744.59" x2="507.944" y2="741.648" gradientUnits="userSpaceOnUse">
<stop stop-color="#1477F8"/>
<stop offset="0.848958" stop-color="#FF6161"/>
</linearGradient>
<linearGradient id="paint16_linear" x1="141.613" y1="754.801" x2="453.357" y2="751.963" gradientUnits="userSpaceOnUse">
<stop stop-color="#1477F8"/>
<stop offset="0.848958" stop-color="#FF6161"/>
</linearGradient>
<linearGradient id="paint17_linear" x1="192.611" y1="600.932" x2="361.749" y2="599.681" gradientUnits="userSpaceOnUse">
<stop stop-color="#1477F8"/>
<stop offset="0.848958" stop-color="#FF6161"/>
</linearGradient>
<linearGradient id="paint18_linear" x1="225.432" y1="794.149" x2="386.49" y2="793.391" gradientUnits="userSpaceOnUse">
<stop stop-color="#1477F8"/>
<stop offset="0.848958" stop-color="#FF6161"/>
</linearGradient>
<linearGradient id="paint19_linear" x1="232.837" y1="442.146" x2="344.552" y2="441.351" gradientUnits="userSpaceOnUse">
<stop stop-color="#1477F8"/>
<stop offset="0.848958" stop-color="#FF6161"/>
</linearGradient>
</defs>
</svg>
