<svg xmlns="http://www.w3.org/2000/svg" width="1440" height="360" viewBox="0 0 1440 360" fill="none">
<path d="M0 0H1440V359H0V0Z" fill="#201785"/>
<mask id="mask0" mask-type="alpha" maskUnits="userSpaceOnUse" x="0" y="0" width="1440" height="359">
<rect width="1440" height="359" fill="#1E283D"/>
</mask>
<g mask="url(#mask0)">
<g opacity="0.8">
<g style="mix-blend-mode:multiply" opacity="0.8" filter="url(#filter0_f)">
<path d="M540.967 24.6735C739.587 -10.9303 1182.46 -79.6973 1210.76 108.073C1239.06 295.844 895.696 562.936 697.076 598.539C498.456 634.143 353.826 518.491 325.523 330.721C297.22 142.95 342.347 60.2773 540.967 24.6735Z" fill="url(#paint0_linear)" fill-opacity="0.4"/>
</g>
</g>
<g opacity="0.8">
<g style="mix-blend-mode:multiply" opacity="0.8" filter="url(#filter1_f)">
<path d="M666.231 -11.3265C768.839 -46.9303 997.628 -115.697 1012.25 72.0732C1026.87 259.844 849.486 526.936 746.878 562.539C644.27 598.143 569.553 482.491 554.931 294.721C540.31 106.95 563.623 24.2773 666.231 -11.3265Z" fill="url(#paint1_linear)" fill-opacity="0.4"/>
</g>
</g>
<g opacity="0.8">
<g style="mix-blend-mode:multiply" opacity="0.8" filter="url(#filter2_f)">
<path d="M700.137 230.674C802.746 195.07 1031.53 126.303 1046.16 314.073C1060.78 501.844 883.393 768.936 780.784 804.539C678.176 840.143 603.459 724.491 588.837 536.721C574.216 348.95 597.529 266.277 700.137 230.674Z" fill="url(#paint2_linear)" fill-opacity="0.4"/>
</g>
</g>
<g opacity="0.8">
<g style="mix-blend-mode:multiply" opacity="0.8" filter="url(#filter3_f)">
<path d="M800.967 -88.3265C999.587 -123.93 1442.46 -192.697 1470.76 -4.92678C1499.06 182.844 1155.7 449.936 957.076 485.539C758.456 521.143 613.826 405.491 585.523 217.721C557.22 29.9504 602.347 -52.7227 800.967 -88.3265Z" fill="url(#paint3_linear)" fill-opacity="0.4"/>
</g>
</g>
<g opacity="0.8">
<g style="mix-blend-mode:multiply" opacity="0.8" filter="url(#filter4_f)">
<path d="M926.231 -124.326C1028.84 -159.93 1257.63 -228.697 1272.25 -40.9268C1286.87 146.844 1109.49 413.936 1006.88 449.539C904.27 485.143 829.553 369.491 814.931 181.721C800.31 -6.0496 823.623 -88.7227 926.231 -124.326Z" fill="url(#paint4_linear)" fill-opacity="0.4"/>
</g>
</g>
<g opacity="0.8">
<g style="mix-blend-mode:multiply" opacity="0.8" filter="url(#filter5_f)">
<path d="M960.137 117.674C1062.75 82.0697 1291.53 13.3027 1306.16 201.073C1320.78 388.844 1143.39 655.936 1040.78 691.539C938.176 727.143 863.459 611.491 848.837 423.721C834.216 235.95 857.529 153.277 960.137 117.674Z" fill="url(#paint5_linear)" fill-opacity="0.4"/>
</g>
</g>
<mask id="mask1" mask-type="alpha" maskUnits="userSpaceOnUse" x="0" y="0" width="1440" height="432">
<rect width="1440" height="432" fill="#1E283D"/>
</mask>
<g mask="url(#mask1)">
<g opacity="0.8">
<g style="mix-blend-mode:multiply" opacity="0.8" filter="url(#filter6_f)">
<path d="M660.532 -29.9502C869.944 -75.6887 1336.88 -164.03 1366.72 77.1895C1396.56 318.41 1034.54 661.53 825.124 707.269C615.712 753.007 463.223 604.435 433.382 363.215C403.541 121.995 451.12 15.7883 660.532 -29.9502Z" fill="url(#paint6_linear)" fill-opacity="0.4"/>
</g>
</g>
<g opacity="0.8">
<g style="mix-blend-mode:multiply" opacity="0.8" filter="url(#filter7_f)">
<path d="M832.292 44.002C945.906 13.4526 1199.23 -45.5521 1215.42 115.562C1231.61 276.677 1035.2 505.852 921.589 536.401C807.975 566.951 725.244 467.717 709.054 306.603C692.864 145.488 718.678 74.5515 832.292 44.002Z" fill="url(#paint7_linear)" fill-opacity="0.4"/>
</g>
</g>
<g opacity="0.8">
<g style="mix-blend-mode:multiply" opacity="0.8" filter="url(#filter8_f)">
<path d="M938.364 54.6884C1046.55 8.94991 1287.77 -79.3918 1303.18 161.828C1318.6 403.048 1131.58 746.169 1023.39 791.907C915.21 837.646 836.433 689.073 821.017 447.853C805.601 206.633 830.181 100.427 938.364 54.6884Z" fill="url(#paint8_linear)" fill-opacity="0.4"/>
</g>
</g>
<g opacity="0.8">
<g style="mix-blend-mode:multiply" opacity="0.8" filter="url(#filter9_f)">
<path d="M964.836 -41.7892C1039.88 -62.7449 1207.2 -103.22 1217.89 7.29828C1228.59 117.816 1098.86 275.021 1023.82 295.977C948.775 316.933 894.132 248.862 883.439 138.344C872.745 27.8263 889.795 -20.8335 964.836 -41.7892Z" fill="url(#paint9_linear)" fill-opacity="0.4"/>
</g>
</g>
<g opacity="0.2" filter="url(#filter10_f)">
<path d="M794.175 353.228C738.811 392.951 716.18 419.379 678 466H1625L1432.81 243.558L1380.24 297.167L1355.66 274.14C1351.9 270.616 1346.08 270.528 1342.21 273.936L1328.5 286.028C1295.41 244.213 1228.6 166.626 1206.05 168.018C1183.51 169.411 1132.27 245.145 1087.03 285.331C1087.03 285.331 1082.1 275.932 1074.71 275.584C1067.31 275.236 1036.78 309.877 1006.53 338.94C993.931 324.927 987.039 317.664 982.376 313.616C979.317 310.96 974.895 311.345 971.825 313.989C960.869 323.42 951.631 333.399 935.078 352.864C935.078 352.864 918.403 324.668 907.563 323.623C896.724 322.579 858.886 360.237 836.25 390.275C822.747 369.191 814.674 358.73 803.8 352.473C800.771 350.73 797.014 351.191 794.175 353.228Z" fill="#201785"/>
</g>
</g>
</g>















<path d="M1160.65 314.772H1162.35V294.29H1160.65V314.772ZM1160.65 336.772H1162.35V316.29H1160.65V336.772ZM1160.65 358.772H1162.35V338.29H1160.65V358.772Z" fill="#00D894"/>
<path d="M1168.63 227.102V224.748H1154.38V227.102H1168.63ZM1134.08 241.028C1134.08 246.836 1137.36 251.126 1141.43 251.126V248.596C1139.41 248.596 1136.94 244.658 1136.94 241.028C1136.94 237.376 1139.41 233.218 1141.43 233.218V230.666C1137.36 230.666 1134.08 235.22 1134.08 241.028ZM1145.29 230.842H1142.74L1149.93 246H1152.48L1145.29 230.842ZM1168.63 249.102V246.748H1154.38V249.102H1168.63ZM1170.52 246H1173.07L1180.26 230.842H1177.71L1170.52 246ZM1188.91 241.028C1188.91 235.22 1185.63 230.666 1181.56 230.666V233.218C1183.58 233.218 1186.05 237.376 1186.05 241.028C1186.05 244.658 1183.58 248.596 1181.56 248.596V251.126C1185.63 251.126 1188.91 246.836 1188.91 241.028ZM1125.98 263.028C1125.98 268.836 1129.26 273.126 1133.33 273.126V270.596C1131.31 270.596 1128.84 266.658 1128.84 263.028C1128.84 259.376 1131.31 255.218 1133.33 255.218V252.666C1129.26 252.666 1125.98 257.22 1125.98 263.028ZM1143.09 264.15V261.18H1135.28V264.15H1143.09ZM1145.1 263.028C1145.1 268.836 1148.38 273.126 1152.45 273.126V270.596C1150.43 270.596 1147.96 266.658 1147.96 263.028C1147.96 259.376 1150.43 255.218 1152.45 255.218V252.666C1148.38 252.666 1145.1 257.22 1145.1 263.028ZM1168.63 271.102V268.748H1154.38V271.102H1168.63ZM1177.89 263.028C1177.89 257.22 1174.61 252.666 1170.54 252.666V255.218C1172.56 255.218 1175.03 259.376 1175.03 263.028C1175.03 266.658 1172.56 270.596 1170.54 270.596V273.126C1174.61 273.126 1177.89 268.836 1177.89 263.028ZM1187.73 264.15V261.18H1179.92V264.15H1187.73ZM1197.01 263.028C1197.01 257.22 1193.73 252.666 1189.66 252.666V255.218C1191.68 255.218 1194.15 259.376 1194.15 263.028C1194.15 266.658 1191.68 270.596 1189.66 270.596V273.126C1193.73 273.126 1197.01 268.836 1197.01 263.028ZM1134.08 285.028C1134.08 290.836 1137.36 295.126 1141.43 295.126V292.596C1139.41 292.596 1136.94 288.658 1136.94 285.028C1136.94 281.376 1139.41 277.218 1141.43 277.218V274.666C1137.36 274.666 1134.08 279.22 1134.08 285.028ZM1142.74 290H1145.29L1152.48 274.842H1149.93L1142.74 290ZM1168.63 293.102V290.748H1154.38V293.102H1168.63ZM1173.07 274.842H1170.52L1177.71 290H1180.26L1173.07 274.842ZM1188.91 285.028C1188.91 279.22 1185.63 274.666 1181.56 274.666V277.218C1183.58 277.218 1186.05 281.376 1186.05 285.028C1186.05 288.658 1183.58 292.596 1181.56 292.596V295.126C1185.63 295.126 1188.91 290.836 1188.91 285.028Z" fill="#00D894"/>
<path d="M1140.85 323.028C1140.85 328.836 1144.13 333.126 1148.2 333.126V330.596C1146.18 330.596 1143.71 326.658 1143.71 323.028C1143.71 319.376 1146.18 315.218 1148.2 315.218V312.666C1144.13 312.666 1140.85 317.22 1140.85 323.028ZM1152.06 312.842H1149.51L1156.7 328H1159.26L1152.06 312.842ZM1147.68 334.842H1145.13L1152.32 350H1154.87L1147.68 334.842Z" fill="#00D894"/>
<path d="M961.654 292.772H963.348V272.29H961.654V292.772ZM961.654 314.772H963.348V294.29H961.654V314.772ZM961.654 336.772H963.348V316.29H961.654V336.772ZM961.654 358.772H963.348V338.29H961.654V358.772Z" fill="#00D894"/>
<path d="M969.631 205.102V202.748H955.375V205.102H969.631ZM935.082 219.028C935.082 224.836 938.36 229.126 942.43 229.126V226.596C940.406 226.596 937.942 222.658 937.942 219.028C937.942 215.376 940.406 211.218 942.43 211.218V208.666C938.36 208.666 935.082 213.22 935.082 219.028ZM946.29 208.842H943.738L950.932 224H953.484L946.29 208.842ZM969.631 227.102V224.748H955.375V227.102H969.631ZM971.517 224H974.069L981.263 208.842H978.711L971.517 224ZM989.908 219.028C989.908 213.22 986.63 208.666 982.56 208.666V211.218C984.584 211.218 987.048 215.376 987.048 219.028C987.048 222.658 984.584 226.596 982.56 226.596V229.126C986.63 229.126 989.908 224.836 989.908 219.028ZM926.982 241.028C926.982 246.836 930.26 251.126 934.33 251.126V248.596C932.306 248.596 929.842 244.658 929.842 241.028C929.842 237.376 932.306 233.218 934.33 233.218V230.666C930.26 230.666 926.982 235.22 926.982 241.028ZM944.086 242.15V239.18H936.276V242.15H944.086ZM946.103 241.028C946.103 246.836 949.381 251.126 953.451 251.126V248.596C951.427 248.596 948.963 244.658 948.963 241.028C948.963 237.376 951.427 233.218 953.451 233.218V230.666C949.381 230.666 946.103 235.22 946.103 241.028ZM969.631 249.102V246.748H955.375V249.102H969.631ZM978.887 241.028C978.887 235.22 975.609 230.666 971.539 230.666V233.218C973.563 233.218 976.027 237.376 976.027 241.028C976.027 244.658 973.563 248.596 971.539 248.596V251.126C975.609 251.126 978.887 246.836 978.887 241.028ZM988.731 242.15V239.18H980.921V242.15H988.731ZM998.008 241.028C998.008 235.22 994.73 230.666 990.66 230.666V233.218C992.684 233.218 995.148 237.376 995.148 241.028C995.148 244.658 992.684 248.596 990.66 248.596V251.126C994.73 251.126 998.008 246.836 998.008 241.028ZM935.082 263.028C935.082 268.836 938.36 273.126 942.43 273.126V270.596C940.406 270.596 937.942 266.658 937.942 263.028C937.942 259.376 940.406 255.218 942.43 255.218V252.666C938.36 252.666 935.082 257.22 935.082 263.028ZM943.738 268H946.29L953.484 252.842H950.932L943.738 268ZM969.631 271.102V268.748H955.375V271.102H969.631ZM974.069 252.842H971.517L978.711 268H981.263L974.069 252.842ZM989.908 263.028C989.908 257.22 986.63 252.666 982.56 252.666V255.218C984.584 255.218 987.048 259.376 987.048 263.028C987.048 266.658 984.584 270.596 982.56 270.596V273.126C986.63 273.126 989.908 268.836 989.908 263.028Z" fill="#00D894"/>
<path d="M941.854 301.028C941.854 306.836 945.132 311.126 949.202 311.126V308.596C947.178 308.596 944.714 304.658 944.714 301.028C944.714 297.376 947.178 293.218 949.202 293.218V290.666C945.132 290.666 941.854 295.22 941.854 301.028ZM953.062 290.842H950.51L957.704 306H960.256L953.062 290.842ZM948.679 312.842H946.127L953.321 328H955.873L948.679 312.842Z" fill="#00D894"/>
<path d="M1047.65 270.772H1049.35V250.29H1047.65V270.772ZM1047.65 292.772H1049.35V272.29H1047.65V292.772ZM1047.65 314.772H1049.35V294.29H1047.65V314.772ZM1047.65 336.772H1049.35V316.29H1047.65V336.772ZM1047.65 358.772H1049.35V338.29H1047.65V358.772Z" fill="#00D894"/>
<path d="M1055.63 183.102V180.748H1041.38V183.102H1055.63ZM1021.08 197.028C1021.08 202.836 1024.36 207.126 1028.43 207.126V204.596C1026.41 204.596 1023.94 200.658 1023.94 197.028C1023.94 193.376 1026.41 189.218 1028.43 189.218V186.666C1024.36 186.666 1021.08 191.22 1021.08 197.028ZM1032.29 186.842H1029.74L1036.93 202H1039.48L1032.29 186.842ZM1055.63 205.102V202.748H1041.38V205.102H1055.63ZM1057.52 202H1060.07L1067.26 186.842H1064.71L1057.52 202ZM1075.91 197.028C1075.91 191.22 1072.63 186.666 1068.56 186.666V189.218C1070.58 189.218 1073.05 193.376 1073.05 197.028C1073.05 200.658 1070.58 204.596 1068.56 204.596V207.126C1072.63 207.126 1075.91 202.836 1075.91 197.028ZM1012.98 219.028C1012.98 224.836 1016.26 229.126 1020.33 229.126V226.596C1018.31 226.596 1015.84 222.658 1015.84 219.028C1015.84 215.376 1018.31 211.218 1020.33 211.218V208.666C1016.26 208.666 1012.98 213.22 1012.98 219.028ZM1030.09 220.15V217.18H1022.28V220.15H1030.09ZM1032.1 219.028C1032.1 224.836 1035.38 229.126 1039.45 229.126V226.596C1037.43 226.596 1034.96 222.658 1034.96 219.028C1034.96 215.376 1037.43 211.218 1039.45 211.218V208.666C1035.38 208.666 1032.1 213.22 1032.1 219.028ZM1055.63 227.102V224.748H1041.38V227.102H1055.63ZM1064.89 219.028C1064.89 213.22 1061.61 208.666 1057.54 208.666V211.218C1059.56 211.218 1062.03 215.376 1062.03 219.028C1062.03 222.658 1059.56 226.596 1057.54 226.596V229.126C1061.61 229.126 1064.89 224.836 1064.89 219.028ZM1074.73 220.15V217.18H1066.92V220.15H1074.73ZM1084.01 219.028C1084.01 213.22 1080.73 208.666 1076.66 208.666V211.218C1078.68 211.218 1081.15 215.376 1081.15 219.028C1081.15 222.658 1078.68 226.596 1076.66 226.596V229.126C1080.73 229.126 1084.01 224.836 1084.01 219.028ZM1021.08 241.028C1021.08 246.836 1024.36 251.126 1028.43 251.126V248.596C1026.41 248.596 1023.94 244.658 1023.94 241.028C1023.94 237.376 1026.41 233.218 1028.43 233.218V230.666C1024.36 230.666 1021.08 235.22 1021.08 241.028ZM1029.74 246H1032.29L1039.48 230.842H1036.93L1029.74 246ZM1055.63 249.102V246.748H1041.38V249.102H1055.63ZM1060.07 230.842H1057.52L1064.71 246H1067.26L1060.07 230.842ZM1075.91 241.028C1075.91 235.22 1072.63 230.666 1068.56 230.666V233.218C1070.58 233.218 1073.05 237.376 1073.05 241.028C1073.05 244.658 1070.58 248.596 1068.56 248.596V251.126C1072.63 251.126 1075.91 246.836 1075.91 241.028Z" fill="#00D894"/>
<path d="M1027.85 331.028C1027.85 336.836 1031.13 341.126 1035.2 341.126V338.596C1033.18 338.596 1030.71 334.658 1030.71 331.028C1030.71 327.376 1033.18 323.218 1035.2 323.218V320.666C1031.13 320.666 1027.85 325.22 1027.85 331.028ZM1039.06 320.842H1036.51L1043.7 336H1046.26L1039.06 320.842ZM1034.68 342.842H1032.13L1039.32 358H1041.87L1034.68 342.842Z" fill="#00D894"/>
<path d="M1048.74 305H1051.3L1058.49 289.842H1055.94L1048.74 305ZM1067.14 300.028C1067.14 294.22 1063.86 289.666 1059.79 289.666V292.218C1061.81 292.218 1064.28 296.376 1064.28 300.028C1064.28 303.658 1061.81 307.596 1059.79 307.596V310.126C1063.86 310.126 1067.14 305.836 1067.14 300.028ZM1053.13 327H1055.68L1062.87 311.842H1060.32L1053.13 327Z" fill="#00D894"/>
<defs>
<filter id="filter0_f" x="117.839" y="-217.483" width="1294.57" height="1022.44" filterUnits="userSpaceOnUse" color-interpolation-filters="sRGB">
<feFlood flood-opacity="0" result="BackgroundImageFix"/>
<feBlend mode="normal" in="SourceGraphic" in2="BackgroundImageFix" result="shape"/>
<feGaussianBlur stdDeviation="100" result="effect1_foregroundBlur"/>
</filter>
<filter id="filter1_f" x="350.962" y="-253.483" width="862.139" height="1022.44" filterUnits="userSpaceOnUse" color-interpolation-filters="sRGB">
<feFlood flood-opacity="0" result="BackgroundImageFix"/>
<feBlend mode="normal" in="SourceGraphic" in2="BackgroundImageFix" result="shape"/>
<feGaussianBlur stdDeviation="100" result="effect1_foregroundBlur"/>
</filter>
<filter id="filter2_f" x="384.868" y="-11.4832" width="862.139" height="1022.44" filterUnits="userSpaceOnUse" color-interpolation-filters="sRGB">
<feFlood flood-opacity="0" result="BackgroundImageFix"/>
<feBlend mode="normal" in="SourceGraphic" in2="BackgroundImageFix" result="shape"/>
<feGaussianBlur stdDeviation="100" result="effect1_foregroundBlur"/>
</filter>
<filter id="filter3_f" x="377.839" y="-330.483" width="1294.57" height="1022.44" filterUnits="userSpaceOnUse" color-interpolation-filters="sRGB">
<feFlood flood-opacity="0" result="BackgroundImageFix"/>
<feBlend mode="normal" in="SourceGraphic" in2="BackgroundImageFix" result="shape"/>
<feGaussianBlur stdDeviation="100" result="effect1_foregroundBlur"/>
</filter>
<filter id="filter4_f" x="610.962" y="-366.483" width="862.139" height="1022.44" filterUnits="userSpaceOnUse" color-interpolation-filters="sRGB">
<feFlood flood-opacity="0" result="BackgroundImageFix"/>
<feBlend mode="normal" in="SourceGraphic" in2="BackgroundImageFix" result="shape"/>
<feGaussianBlur stdDeviation="100" result="effect1_foregroundBlur"/>
</filter>
<filter id="filter5_f" x="644.868" y="-124.483" width="862.139" height="1022.44" filterUnits="userSpaceOnUse" color-interpolation-filters="sRGB">
<feFlood flood-opacity="0" result="BackgroundImageFix"/>
<feBlend mode="normal" in="SourceGraphic" in2="BackgroundImageFix" result="shape"/>
<feGaussianBlur stdDeviation="100" result="effect1_foregroundBlur"/>
</filter>
<filter id="filter6_f" x="225.281" y="-284.107" width="1343.17" height="1199.62" filterUnits="userSpaceOnUse" color-interpolation-filters="sRGB">
<feFlood flood-opacity="0" result="BackgroundImageFix"/>
<feBlend mode="normal" in="SourceGraphic" in2="BackgroundImageFix" result="shape"/>
<feGaussianBlur stdDeviation="100" result="effect1_foregroundBlur"/>
</filter>
<filter id="filter7_f" x="504.659" y="-192.17" width="911.707" height="934.081" filterUnits="userSpaceOnUse" color-interpolation-filters="sRGB">
<feFlood flood-opacity="0" result="BackgroundImageFix"/>
<feBlend mode="normal" in="SourceGraphic" in2="BackgroundImageFix" result="shape"/>
<feGaussianBlur stdDeviation="100" result="effect1_foregroundBlur"/>
</filter>
<filter id="filter8_f" x="616.832" y="-199.468" width="887.249" height="1199.62" filterUnits="userSpaceOnUse" color-interpolation-filters="sRGB">
<feFlood flood-opacity="0" result="BackgroundImageFix"/>
<feBlend mode="normal" in="SourceGraphic" in2="BackgroundImageFix" result="shape"/>
<feGaussianBlur stdDeviation="100" result="effect1_foregroundBlur"/>
</filter>
<filter id="filter9_f" x="680.535" y="-266.602" width="737.979" height="766.358" filterUnits="userSpaceOnUse" color-interpolation-filters="sRGB">
<feFlood flood-opacity="0" result="BackgroundImageFix"/>
<feBlend mode="normal" in="SourceGraphic" in2="BackgroundImageFix" result="shape"/>
<feGaussianBlur stdDeviation="100" result="effect1_foregroundBlur"/>
</filter>
<filter id="filter10_f" x="665" y="155" width="973" height="324" filterUnits="userSpaceOnUse" color-interpolation-filters="sRGB">
<feFlood flood-opacity="0" result="BackgroundImageFix"/>
<feBlend mode="normal" in="SourceGraphic" in2="BackgroundImageFix" result="shape"/>
<feGaussianBlur stdDeviation="6.5" result="effect1_foregroundBlur"/>
</filter>
<linearGradient id="paint0_linear" x1="556.777" y1="973.845" x2="1508.24" y2="958.051" gradientUnits="userSpaceOnUse">
<stop stop-color="#1477F8"/>
<stop offset="0.848958" stop-color="#FF6161"/>
</linearGradient>
<linearGradient id="paint1_linear" x1="674.399" y1="937.845" x2="1166.03" y2="933.629" gradientUnits="userSpaceOnUse">
<stop stop-color="#1477F8"/>
<stop offset="0.848958" stop-color="#FF6161"/>
</linearGradient>
<linearGradient id="paint2_linear" x1="708.305" y1="1179.85" x2="1199.94" y2="1175.63" gradientUnits="userSpaceOnUse">
<stop stop-color="#1477F8"/>
<stop offset="0.848958" stop-color="#FF6161"/>
</linearGradient>
<linearGradient id="paint3_linear" x1="816.777" y1="860.845" x2="1768.24" y2="845.051" gradientUnits="userSpaceOnUse">
<stop stop-color="#1477F8"/>
<stop offset="0.848958" stop-color="#FF6161"/>
</linearGradient>
<linearGradient id="paint4_linear" x1="934.399" y1="824.845" x2="1426.03" y2="820.629" gradientUnits="userSpaceOnUse">
<stop stop-color="#1477F8"/>
<stop offset="0.848958" stop-color="#FF6161"/>
</linearGradient>
<linearGradient id="paint5_linear" x1="968.305" y1="1066.85" x2="1459.94" y2="1062.63" gradientUnits="userSpaceOnUse">
<stop stop-color="#1477F8"/>
<stop offset="0.848958" stop-color="#FF6161"/>
</linearGradient>
<linearGradient id="paint6_linear" x1="677.202" y1="1189.41" x2="1680.45" y2="1175.74" gradientUnits="userSpaceOnUse">
<stop stop-color="#1477F8"/>
<stop offset="0.848958" stop-color="#FF6161"/>
</linearGradient>
<linearGradient id="paint7_linear" x1="841.336" y1="858.428" x2="1385.67" y2="852.404" gradientUnits="userSpaceOnUse">
<stop stop-color="#1477F8"/>
<stop offset="0.848958" stop-color="#FF6161"/>
</linearGradient>
<linearGradient id="paint8_linear" x1="946.976" y1="1274.05" x2="1465.33" y2="1270.4" gradientUnits="userSpaceOnUse">
<stop stop-color="#1477F8"/>
<stop offset="0.848958" stop-color="#FF6161"/>
</linearGradient>
<linearGradient id="paint9_linear" x1="970.81" y1="516.875" x2="1330.34" y2="513.044" gradientUnits="userSpaceOnUse">
<stop stop-color="#1477F8"/>
<stop offset="0.848958" stop-color="#FF6161"/>
</linearGradient>
</defs>
</svg>
