<svg width="156" height="192" viewBox="0 0 156 192" fill="none" xmlns="http://www.w3.org/2000/svg">
<g filter="url(#filter0_d)">
<path fill-rule="evenodd" clip-rule="evenodd" d="M57.2704 71.1012L53.6394 71.8842C47.5431 73.1989 42.3439 77.1607 39.4478 82.6984L21.9019 109.423C20.5073 112.09 22.2707 115.321 25.2623 115.58L57.3653 122.547L44.0184 120.128V126.141C44.0184 130.588 43.1759 134.995 41.5358 139.128L41.5108 139.191L20.9411 151.377C7.35876 159.423 15.3443 180.349 30.8136 177.247L120.307 157.102L67.6338 170.463L125.42 177.103C140.816 178.898 147.29 158.003 133.59 150.733L111.622 139.075C109.996 134.958 109.16 130.569 109.16 126.141L109.039 120.059L94.1716 122.547L127.906 115.571C130.9 115.316 132.668 112.084 131.272 109.415L113.731 82.6984C110.835 77.1607 105.636 73.1989 99.5394 71.8842L95.5349 71.0206C90.6179 75.9395 83.8276 78.9659 76.3622 78.9659C68.9376 78.9659 62.1808 75.9725 57.2704 71.1012Z" fill="#201785"/>
<path d="M94 108L111.5 104" stroke="white" stroke-linecap="round" stroke-linejoin="round"/>
<path d="M58.5 108L41 104" stroke="white" stroke-linecap="round" stroke-linejoin="round"/>
<path d="M57.1827 109.096H54.0649V105.594H57.1827V88.0003L66.2797 86.4203L66.7495 89.2387L60.6848 90.2636V104.783L58.9337 105.594V109.096L60.6848 109.907V124.427L66.7495 125.409L66.2369 128.227L57.1827 126.647V109.096Z" fill="white"/>
<path d="M84.9294 125.409L90.994 124.427V109.907L92.7451 109.096V105.594L90.994 104.783V90.2636L84.9294 89.2387L85.3992 86.4203L94.4962 88.0003V105.594H97.6139V109.096H94.4962V126.647L85.4419 128.227L84.9294 125.409Z" fill="white"/>
<path opacity="0.5" d="M47.8394 34.5706C49.7253 35.7596 49.6729 38.0384 49.411 39.0292C48.3633 39.0292 45.4822 38.5834 42.3391 36.7999C38.4103 34.5706 38.4103 30.8551 39.9818 32.3413C41.5533 33.8275 45.4822 33.0844 47.8394 34.5706Z" fill="#201785"/>
<path d="M48.7913 43.1274C47.922 27.306 60.5169 14 76.3622 14C92.2075 14 104.802 27.3059 103.933 43.1273L103.426 52.3479C102.637 66.7182 90.7542 77.9659 76.3622 77.9659C61.9702 77.9659 50.0875 66.7182 49.2979 52.3479L48.7913 43.1274Z" fill="#201785"/>
<path d="M45.6485 36.1914C47.9084 36.0296 49.343 37.9654 49.7778 38.9536C48.9501 39.5953 46.3851 40.9876 42.7468 41.4228C38.199 41.9669 35.7926 38.863 37.9967 39.142C40.2009 39.421 42.8235 36.3937 45.6485 36.1914Z" fill="#201785"/>
<path d="M53.0301 59.095C51.3204 53.441 55.5524 47.7403 61.4592 47.7403H91.5905C97.4071 47.7403 101.637 53.2631 100.121 58.8788C98.7145 64.0918 93.5237 67.3359 88.2214 66.316L85.6539 65.8222C79.0841 64.5585 72.328 64.6207 65.7826 66.0051L64.9901 66.1728C59.7704 67.2768 54.5742 64.2018 53.0301 59.095Z" fill="white"/>
<path d="M69.7803 55.2682C70.4471 55.3516 70.7551 56.0642 70.201 56.4443C69.7828 56.7311 69.2673 56.9873 68.6703 57.2018C67.4417 57.6431 65.9359 57.8835 64.3854 57.8857C62.835 57.888 61.326 57.652 60.0916 57.2142C59.491 57.0012 58.9716 56.7462 58.5493 56.4601C57.993 56.0832 58.2964 55.3684 58.963 55.283C59.3347 55.2354 59.6928 55.4254 59.9737 55.6735C60.3093 55.9698 60.7807 56.2305 61.3593 56.4357C62.2275 56.7436 63.2886 56.9095 64.3789 56.9079C65.4693 56.9064 66.5282 56.7373 67.3922 56.427C67.9634 56.2218 68.4283 55.9624 68.7594 55.6681C69.0428 55.4164 69.4042 55.2212 69.7803 55.2682Z" fill="#201785"/>
<path d="M91.4325 55.2683C92.0991 55.3516 92.4071 56.064 91.8531 56.4441C91.4348 56.731 90.9193 56.9872 90.3221 57.2018C89.0935 57.6431 87.5878 57.8835 86.0373 57.8857C84.4868 57.888 82.9779 57.652 81.7434 57.2142C81.1427 57.0011 80.6233 56.7461 80.2009 56.4599C79.6447 56.0831 79.9481 55.3684 80.6145 55.283C80.9861 55.2354 81.3442 55.4254 81.625 55.6734C81.9606 55.9699 82.4321 56.2306 83.0109 56.4359C83.8791 56.7438 84.9403 56.9097 86.0308 56.9082C87.1213 56.9066 88.1803 56.7376 89.0444 56.4271C89.6156 56.2219 90.0807 55.9624 90.4119 55.6681C90.6951 55.4164 91.0565 55.2213 91.4325 55.2683Z" fill="#201785"/>
<path d="M76.0001 111L70.8578 105.908C68.8793 103.948 70.6035 100.382 73.1858 101.092L76.0001 101.866L78.8142 101.092C81.3965 100.382 83.1207 103.948 81.1423 105.908L76.0001 111Z" fill="#00D894"/>
</g>
<defs>
<filter id="filter0_d" x="0" y="0" width="155.086" height="191.558" filterUnits="userSpaceOnUse" color-interpolation-filters="sRGB">
<feFlood flood-opacity="0" result="BackgroundImageFix"/>
<feColorMatrix in="SourceAlpha" type="matrix" values="0 0 0 0 0 0 0 0 0 0 0 0 0 0 0 0 0 0 127 0"/>
<feOffset/>
<feGaussianBlur stdDeviation="7"/>
<feColorMatrix type="matrix" values="0 0 0 0 0.288958 0 0 0 0 0.9125 0 0 0 0 0.392882 0 0 0 0.5 0"/>
<feBlend mode="normal" in2="BackgroundImageFix" result="effect1_dropShadow"/>
<feBlend mode="normal" in="SourceGraphic" in2="effect1_dropShadow" result="shape"/>
</filter>
</defs>
</svg>
