<?xml version="1.0" encoding="utf-8"?>
<!-- Generator: Adobe Illustrator 25.2.3, SVG Export Plug-In . SVG Version: 6.00 Build 0)  -->
<svg version="1.1" id="Layer_1" xmlns="http://www.w3.org/2000/svg" xmlns:xlink="http://www.w3.org/1999/xlink" x="0px" y="0px"
	 viewBox="0 0 128 128" style="enable-background:new 0 0 128 128;" xml:space="preserve">
<style type="text/css">
	.st0{fill:#04325A;}
	.st1{fill:#FF6161;}
	.st2{opacity:0.1038;}
	.st3{fill-rule:evenodd;clip-rule:evenodd;fill:#005DE8;}
	.st4{fill:none;stroke:#DADEE4;stroke-width:1.7715;stroke-linecap:round;stroke-dasharray:3.5431,5.3146;}
	.st5{fill:url(#Oval_3_1_);}
	.st6{fill:url(#Oval_4_1_);}
	.st7{opacity:0.1998;fill:none;stroke:#0051FF;stroke-width:0.8858;enable-background:new    ;}
	.st8{fill:url(#Oval_5_1_);}
	.st9{fill:url(#Oval_6_1_);}
	.st10{fill:url(#Oval_7_1_);}
	.st11{fill-rule:evenodd;clip-rule:evenodd;fill:#FFFFFF;}
	.st12{fill-rule:evenodd;clip-rule:evenodd;fill:#3A7AF3;}
</style>
<g id="Illustrations_x2F_Environments_x2F__x40_Loyalty">
	<g id="Group_16">
		<circle id="Oval" class="st0" cx="120.4" cy="86.3" r="3.2"/>
		<circle id="Oval_2" class="st1" cx="43.8" cy="9.8" r="2.9"/>
		<g id="Path_7" class="st2">
			<path class="st3" d="M27.8,22.4l-6.3,31.4l42.1,68.3L3.9,53.8l24.4-31L27.8,22.4z"/>
		</g>
		<g id="Path_7_x5F_2" class="st2">
			<path class="st3" d="M100,22.4l6.3,31.4l-42.1,68.3l59.7-68.3l-24.4-31L100,22.4z"/>
		</g>
		<path id="Path_6" class="st4" d="M28.8,24.2l4.3,30.3l31,65.5l31.3-65.9l4.3-30"/>
		<path id="Path_6_x5F_2" class="st4" d="M33.7,54.5l30.8-30.3l30.2,30.3"/>
		<path id="Line_6" class="st4" d="M119.2,54.5H6.4"/>
		
			<radialGradient id="Oval_3_1_" cx="-579.4598" cy="471.8398" r="1.7715" gradientTransform="matrix(-1.573 -2.2769 -2.2774 1.5734 264.2827 -2015.917)" gradientUnits="userSpaceOnUse">
			<stop  offset="0.1198" style="stop-color:#21DFA3"/>
			<stop  offset="1" style="stop-color:#1EF9B4;stop-opacity:1.000000e-02"/>
		</radialGradient>
		<path id="Oval_3" class="st5" d="M102.1,40.6c2.9,0.5,4.8,3.2,4.4,6.1c-0.5,2.9-3.2,4.8-6.1,4.3c-2.9-0.5-4.8-3.2-4.4-6.1
			S99.2,40.1,102.1,40.6z"/>
		
			<radialGradient id="Oval_4_1_" cx="-556.2639" cy="483.3495" r="1.7715" gradientTransform="matrix(-1.8352 -2.6564 -2.657 1.8356 351.3311 -2268.5691)" gradientUnits="userSpaceOnUse">
			<stop  offset="0.1198" style="stop-color:#21DFA3"/>
			<stop  offset="1" style="stop-color:#1EF9B4;stop-opacity:1.000000e-02"/>
		</radialGradient>
		<path id="Oval_4" class="st6" d="M88.9,90.2c3.4,0.6,5.7,3.7,5.1,7.1c-0.6,3.4-3.8,5.6-7.1,5c-3.4-0.6-5.7-3.7-5.1-7.1
			S85.5,89.7,88.9,90.2z"/>
		<path id="Path_5" class="st7" d="M27.4,22.8L3.7,54.9l59.8,67.3l60.7-67.3l-23.4-32.1H27.4z"/>
		
			<radialGradient id="Oval_5_1_" cx="-473.7954" cy="344.8701" r="1.7715" gradientTransform="matrix(0.8022 -2.6298 -2.6298 -0.8022 1323.8669 -934.6509)" gradientUnits="userSpaceOnUse">
			<stop  offset="0" style="stop-color:#20E8A9"/>
			<stop  offset="1" style="stop-color:#1EF9B4;stop-opacity:1.000000e-02"/>
		</radialGradient>
		<circle id="Oval_5" class="st8" cx="37.4" cy="35.2" r="5.3"/>
		
			<radialGradient id="Oval_6_1_" cx="-571.8293" cy="176.8211" r="1.7715" gradientTransform="matrix(0.4011 -1.3149 -1.3149 -0.4011 483.9365 -620.3265)" gradientUnits="userSpaceOnUse">
			<stop  offset="0" style="stop-color:#20E8A9"/>
			<stop  offset="1" style="stop-color:#1EF9B4;stop-opacity:1.000000e-02"/>
		</radialGradient>
		<circle id="Oval_6" class="st9" cx="22.3" cy="60.9" r="2.7"/>
		
			<radialGradient id="Oval_7_1_" cx="-489.2609" cy="501.0699" r="1.7715" gradientTransform="matrix(-3.0046 -4.2645 -4.2645 3.0046 695.5947 -3482.0156)" gradientUnits="userSpaceOnUse">
			<stop  offset="0" style="stop-color:#005DE8"/>
			<stop  offset="1" style="stop-color:#FFFFFF;stop-opacity:1.000000e-02"/>
		</radialGradient>
		<circle id="Oval_7" class="st10" cx="28.8" cy="109.9" r="9.1"/>
		<g id="Polygon">
			<path class="st11" d="M64.9,28.2l26.8,16.4v32.8L64.9,93.7L38,77.3V44.5L64.9,28.2z"/>
		</g>
		<path id="Combined_Shape_x5F_2" class="st12" d="M73.7,75.2c5.8-3.4,9.7-9.7,9.7-16.9c0-10.8-8.7-19.5-19.5-19.5
			s-19.5,8.7-19.5,19.5c0,7.2,3.9,13.5,9.7,16.9v10.1c0,0.7,0.7,1.1,1.3,0.8l8.4-4.5l8.5,4.5c0.6,0.3,1.3-0.1,1.3-0.8V75.2z
			 M78.6,58.3c0,8.1-6.5,14.6-14.6,14.6s-14.6-6.5-14.6-14.6S55.9,43.7,64,43.7S78.6,50.2,78.6,58.3z"/>
	</g>
</g>
</svg>
